<svg width="384" height="529" viewBox="0 0 384 529" fill="none" xmlns="http://www.w3.org/2000/svg">
<g opacity="0.9" filter="url(#filter0_f_23_414)">
<path d="M197.777 29.8336C68.5069 66.6327 -6.96543 202.174 29.8336 331.444C66.6327 460.714 202.174 536.186 331.444 499.387C460.714 462.588 536.186 327.047 499.387 197.777C462.588 68.5071 327.046 -6.96544 197.777 29.8336ZM95.419 312.774C81.6194 264.298 89.8133 213.671 114.423 173.784C124.212 157.639 148.107 154.947 162.212 168.4L250.096 253.329C258.505 261.211 261.752 272.617 258.755 283.745L228.775 402.226C224.14 422.041 202.14 431.387 184.094 422.138C142.577 399.021 109.219 361.25 95.419 312.774ZM367.009 360.82L279.125 275.892C270.716 268.01 267.469 256.604 270.466 245.475L300.446 126.994C305.351 108.13 326.13 98.1043 343.906 106.402C385.832 127.348 419.461 166.07 433.26 214.546C447.06 263.022 438.866 313.649 414.257 353.536C404.328 372.803 381.384 375.224 367.009 360.82Z" fill="#04090C" fill-opacity="0.1"/>
</g>
<defs>
<filter id="filter0_f_23_414" x="0.512085" y="0.512024" width="528.197" height="528.197" filterUnits="userSpaceOnUse" color-interpolation-filters="sRGB">
<feFlood flood-opacity="0" result="BackgroundImageFix"/>
<feBlend mode="normal" in="SourceGraphic" in2="BackgroundImageFix" result="shape"/>
<feGaussianBlur stdDeviation="10" result="effect1_foregroundBlur_23_414"/>
</filter>
</defs>
</svg>
