<svg width="99" height="99" viewBox="0 0 99 99" fill="none" xmlns="http://www.w3.org/2000/svg">
<rect x="2" y="2" width="94.0248" height="94.0248" rx="20" fill="#04090C"/>
<rect x="1" y="1" width="96.0248" height="96.0248" rx="21" stroke="black" stroke-opacity="0.3" stroke-width="2"/>
<path d="M49 22C34.1336 22 22 34.1336 22 49C22 63.8664 34.1336 76 49 76C63.8664 76 76 63.8664 76 49C76 34.1336 63.8664 22 49 22ZM29.5425 49C29.5425 43.4251 31.9474 38.2875 35.7733 34.7895C37.3036 33.3684 39.9271 33.8057 41.0202 35.664L47.7976 47.3603C48.4534 48.4535 48.4534 49.7652 47.7976 50.8583L41.0202 62.5547C39.9271 64.5223 37.3036 64.8502 35.664 63.3198C31.9474 59.6032 29.5425 54.5749 29.5425 49ZM56.9798 62.336L50.2024 50.6397C49.5466 49.5466 49.5466 48.2348 50.2024 47.1417L56.9798 35.4453C58.0729 33.587 60.587 33.1498 62.2267 34.5709C66.0526 38.0688 68.4575 43.2065 68.4575 48.7814C68.4575 54.3563 66.0526 59.4939 62.2267 62.9919C60.587 64.7409 58.0729 64.3036 56.9798 62.336Z" fill="white"/>
</svg>
