<svg width="37" height="38" viewBox="0 0 37 38" fill="none" xmlns="http://www.w3.org/2000/svg">
<path d="M18.5 0.5C8.31377 0.5 0 8.81377 0 19C0 29.1862 8.31377 37.5 18.5 37.5C28.6862 37.5 37 29.1862 37 19C37 8.81377 28.6862 0.5 18.5 0.5ZM5.16802 19C5.16802 15.1802 6.81579 11.6599 9.43725 9.26317C10.4858 8.28948 12.2834 8.58907 13.0324 9.86235L17.6761 17.8765C18.1255 18.6255 18.1255 19.5243 17.6761 20.2733L13.0324 28.2875C12.2834 29.6356 10.4858 29.8603 9.36235 28.8117C6.81579 26.2652 5.16802 22.8198 5.16802 19ZM23.9676 28.1376L19.3239 20.1235C18.8745 19.3745 18.8745 18.4757 19.3239 17.7267L23.9676 9.71254C24.7166 8.43926 26.4393 8.13968 27.5628 9.11336C30.1842 11.5101 31.832 15.0304 31.832 18.8502C31.832 22.67 30.1842 26.1903 27.5628 28.587C26.4393 29.7854 24.7166 29.4858 23.9676 28.1376Z" fill="black"/>
</svg>
